<mxfile host="www.draw.io" modified="2019-10-28T03:45:56.879Z" agent="Mozilla/5.0 (Macintosh; Intel Mac OS X 10_14_4) AppleWebKit/537.36 (KHTML, like Gecko) Chrome/77.0.3865.120 Safari/537.36" etag="FoEtRF9XP_CeXVGQl-XP" version="12.1.7" type="github" pages="1">
  <diagram id="rGmDkPTuTz0P_3TzJJ4o" name="一致性读和当前读">
    <mxGraphModel dx="772" dy="509" grid="1" gridSize="10" guides="1" tooltips="1" connect="1" arrows="1" fold="1" page="1" pageScale="1" pageWidth="827" pageHeight="1169" math="0" shadow="0">
      <root>
        <mxCell id="0"/>
        <mxCell id="1" parent="0"/>
        <mxCell id="xL55-UT9bH0eYafqDX80-1" value="&lt;table border=&quot;1&quot; width=&quot;100%&quot; style=&quot;width: 100% ; height: 100% ; border-collapse: collapse&quot;&gt;&lt;tbody&gt;&lt;tr&gt;&lt;td align=&quot;center&quot;&gt;事务A&lt;/td&gt;&lt;td align=&quot;center&quot;&gt;事务B&lt;/td&gt;&lt;td align=&quot;center&quot;&gt;事务C&lt;/td&gt;&lt;/tr&gt;&lt;tr&gt;&lt;td align=&quot;center&quot;&gt;start transaction with consistent snapshot;&lt;/td&gt;&lt;td align=&quot;center&quot;&gt;&lt;br&gt;&lt;/td&gt;&lt;td align=&quot;center&quot;&gt;&lt;/td&gt;&lt;/tr&gt;&lt;tr&gt;&lt;td align=&quot;center&quot;&gt;&lt;/td&gt;&lt;td align=&quot;center&quot;&gt;start transaction with consistent snapshot;&lt;/td&gt;&lt;td align=&quot;center&quot;&gt;&lt;/td&gt;&lt;/tr&gt;&lt;tr&gt;&lt;td&gt;&lt;br&gt;&lt;/td&gt;&lt;td&gt;&lt;br&gt;&lt;/td&gt;&lt;td&gt;update t set k=k+1 where id=1;&lt;/td&gt;&lt;/tr&gt;&lt;tr&gt;&lt;td&gt;&lt;br&gt;&lt;/td&gt;&lt;td&gt;update t set k=k+1 where id=1;&lt;br&gt;select k from t where id=1;&lt;/td&gt;&lt;td&gt;&lt;br&gt;&lt;/td&gt;&lt;/tr&gt;&lt;tr&gt;&lt;td&gt;select k from t where id=1;&lt;br&gt;commit;&lt;/td&gt;&lt;td&gt;&lt;br&gt;&lt;/td&gt;&lt;td&gt;&lt;br&gt;&lt;/td&gt;&lt;/tr&gt;&lt;tr&gt;&lt;td&gt;&lt;br&gt;&lt;/td&gt;&lt;td&gt;commit;&lt;/td&gt;&lt;td&gt;&lt;br&gt;&lt;/td&gt;&lt;/tr&gt;&lt;/tbody&gt;&lt;/table&gt;" style="text;html=1;overflow=fill;autosize=1;collapsible=0;treeFolding=0;flipH=1;fillColor=#ffffff;strokeWidth=1;strokeColor=none;" vertex="1" parent="1">
          <mxGeometry x="10" y="20" width="640" height="150" as="geometry"/>
        </mxCell>
      </root>
    </mxGraphModel>
  </diagram>
</mxfile>
